<?xml version="1.0" standalone="no"?>
<!DOCTYPE svg PUBLIC "-//W3C//DTD SVG 20010904//EN"
 "http://www.w3.org/TR/2001/REC-SVG-20010904/DTD/svg10.dtd">
<svg version="1.0" xmlns="http://www.w3.org/2000/svg"
 width="533.000000pt" height="362.000000pt" viewBox="0 0 533.000000 362.000000"
 preserveAspectRatio="xMidYMid meet">

<g transform="translate(0.000000,362.000000) scale(0.100000,-0.100000)"
fill="#000000" stroke="none">
<path d="M1955 3146 c-369 -106 -683 -196 -700 -200 -22 -6 -26 -10 -15 -16 8
-4 327 -96 707 -205 l693 -198 709 204 c391 112 709 204 708 205 -5 4 -1413
404 -1422 403 -6 0 -311 -87 -680 -193z m781 -162 c21 -15 41 -30 42 -35 2 -5
207 -10 455 -10 l452 -2 -447 -18 c-417 -18 -449 -20 -467 -38 -47 -47 -117
-67 -163 -48 -77 33 -95 99 -40 149 44 38 112 39 168 2z"/>
<path d="M2613 2965 c-37 -16 -48 -41 -29 -70 23 -34 71 -39 119 -13 51 29 55
41 21 63 -42 28 -77 34 -111 20z"/>
<path d="M1119 3097 c-69 -58 -105 -100 -137 -162 -22 -43 -39 -115 -27 -115
3 0 26 13 49 30 62 42 135 127 161 185 27 60 40 115 28 115 -5 0 -38 -24 -74
-53z"/>
<path d="M4076 3123 c12 -52 53 -134 91 -180 33 -40 132 -123 148 -123 11 0 4
41 -15 92 -22 59 -89 141 -163 199 -58 46 -70 48 -61 12z"/>
<path d="M877 3067 c-45 -95 -59 -161 -55 -252 4 -108 18 -124 51 -58 44 85
60 158 55 247 -2 45 -9 89 -14 99 -9 16 -14 12 -37 -36z"/>
<path d="M4355 3102 c-4 -9 -9 -51 -12 -93 -6 -82 16 -178 59 -263 19 -37 21
-38 34 -22 37 51 25 184 -28 313 -33 80 -42 92 -53 65z"/>
<path d="M714 2853 c-25 -87 -29 -236 -7 -297 10 -27 23 -51 30 -54 21 -6 48
105 48 203 0 86 -22 186 -45 200 -5 3 -16 -21 -26 -52z"/>
<path d="M4518 2877 c-26 -54 -41 -146 -34 -207 8 -69 36 -170 47 -170 5 0 16
15 26 33 25 47 29 187 9 279 -22 97 -28 106 -48 65z"/>
<path d="M1055 2837 c-85 -45 -197 -159 -218 -220 l-16 -48 22 7 c70 21 183
112 222 177 23 40 58 117 53 117 -2 0 -30 -15 -63 -33z"/>
<path d="M4160 2850 c0 -29 58 -120 106 -165 51 -50 170 -123 181 -112 8 9
-34 96 -67 137 -31 39 -185 150 -207 150 -7 0 -13 -5 -13 -10z"/>
<path d="M3828 2800 c-4 -14 -8 -41 -8 -60 0 -24 -6 -39 -20 -48 -24 -15 -26
-49 -4 -73 15 -17 15 -19 0 -34 -9 -9 -16 -19 -16 -23 0 -4 -16 -95 -35 -202
-33 -193 -33 -195 -14 -215 15 -15 36 -20 92 -23 66 -4 76 -2 100 19 l27 24
-35 200 c-19 110 -35 201 -35 202 0 1 -7 9 -16 17 -14 15 -14 17 0 32 22 21
20 60 -3 76 -15 11 -21 28 -23 74 -2 44 -5 53 -10 34z"/>
<path d="M540 2663 c0 -51 33 -180 58 -230 30 -56 88 -120 100 -108 14 14 -4
133 -29 201 -19 51 -75 132 -112 163 -15 12 -17 10 -17 -26z"/>
<path d="M4685 2658 c-49 -55 -79 -114 -100 -193 -17 -66 -20 -145 -6 -145 16
0 78 79 101 127 28 59 52 167 48 216 l-3 41 -40 -46z"/>
<path d="M2020 2291 l0 -351 36 -40 c82 -90 271 -153 499 -165 297 -17 557 47
678 167 l47 47 0 347 c0 325 -1 346 -17 341 -10 -2 -154 -46 -321 -97 l-303
-92 -297 92 c-163 51 -303 95 -309 98 -10 3 -13 -70 -13 -347z"/>
<path d="M841 2490 c-59 -84 -92 -165 -98 -237 -8 -94 0 -104 42 -52 49 62 82
126 100 194 16 64 20 155 6 155 -4 0 -27 -27 -50 -60z"/>
<path d="M4374 2536 c-4 -11 -3 -52 3 -91 12 -86 60 -188 115 -248 l39 -42 -3
81 c-3 72 -8 90 -45 165 -24 46 -56 100 -72 119 -27 32 -30 33 -37 16z"/>
<path d="M530 2382 c0 -23 37 -137 57 -177 30 -58 76 -114 114 -140 l39 -25 0
25 c0 35 -36 141 -65 190 -25 44 -120 145 -136 145 -5 0 -9 -8 -9 -18z"/>
<path d="M4673 2348 c-60 -58 -105 -136 -128 -225 -22 -82 -20 -86 20 -62 63
37 122 129 158 244 35 114 30 118 -50 43z"/>
<path d="M820 2160 c-24 -145 0 -293 63 -375 14 -18 15 -15 27 40 26 127 -3
317 -59 387 -18 22 -19 22 -31 -52z"/>
<path d="M4412 2195 c-59 -99 -78 -252 -48 -380 l11 -50 22 31 c48 68 58 111
58 254 -1 74 -6 146 -11 159 -10 24 -10 24 -32 -14z"/>
<path d="M486 2090 c10 -18 47 -63 82 -101 64 -69 160 -129 208 -129 l23 0
-21 37 c-60 101 -187 201 -278 219 l-33 7 19 -33z"/>
<path d="M4703 2091 c-34 -16 -82 -48 -107 -71 -51 -47 -123 -147 -113 -157 4
-4 33 2 65 11 48 16 70 32 138 100 45 44 89 96 98 114 16 30 16 32 -1 32 -10
0 -46 -13 -80 -29z"/>
<path d="M961 1829 c32 -142 116 -285 198 -340 44 -29 46 -29 49 -9 6 36 -49
180 -92 244 -39 55 -134 146 -155 146 -5 0 -5 -18 0 -41z"/>
<path d="M4260 1835 c-58 -43 -100 -95 -138 -170 -31 -63 -62 -155 -62 -187 0
-18 2 -18 41 4 90 50 173 191 213 361 8 35 1 34 -54 -8z"/>
<path d="M610 1839 c0 -6 39 -50 88 -98 98 -99 182 -147 271 -158 l55 -6 -35
48 c-69 96 -192 180 -306 210 -68 18 -73 18 -73 4z"/>
<path d="M4575 1831 c-33 -10 -80 -28 -105 -41 -49 -25 -210 -178 -210 -199 0
-23 83 -7 158 29 48 24 92 58 155 120 114 115 115 124 2 91z"/>
<path d="M1843 1554 c-83 -54 -103 -71 -103 -90 l0 -24 868 0 c662 0 871 -3
880 -12 18 -18 15 -73 -5 -97 l-18 -21 -860 -3 -860 -2 -3 -47 -3 -48 905 0
c858 0 906 1 906 18 0 9 -9 23 -21 30 l-21 13 20 22 c29 31 42 72 35 109 -8
45 -16 55 -113 142 l-84 76 -710 0 -711 -1 -102 -65z"/>
<path d="M1251 1568 c42 -82 124 -154 239 -212 l105 -52 -141 0 -140 1 -88
-43 c-48 -24 -85 -49 -83 -55 10 -32 261 -33 348 -3 67 24 119 71 119 107 0
68 -71 152 -191 225 -51 30 -157 74 -181 74 -5 0 1 -19 13 -42z"/>
<path d="M3985 1596 c-103 -33 -242 -126 -289 -195 -20 -29 -30 -55 -30 -83
-1 -37 3 -45 41 -74 28 -21 66 -38 112 -48 81 -18 228 -20 285 -3 l39 12 -41
28 c-93 61 -135 72 -282 71 l-135 0 93 48 c114 59 172 106 223 182 54 81 53
84 -16 62z"/>
<path d="M711 1570 c-24 -5 -46 -12 -48 -14 -10 -10 140 -77 218 -97 89 -23
196 -22 240 2 22 11 22 12 -17 35 -104 63 -284 97 -393 74z"/>
<path d="M4375 1574 c-103 -27 -235 -85 -235 -104 0 -11 82 -30 133 -30 65 0
185 34 268 76 70 35 72 37 49 46 -29 11 -185 19 -215 12z"/>
<path d="M1054 1396 c-34 -8 -83 -25 -110 -39 l-49 -25 41 -11 c169 -45 315
-40 412 15 23 14 42 27 42 29 0 2 -24 11 -53 19 -79 23 -210 28 -283 12z"/>
<path d="M3995 1395 c-38 -7 -81 -17 -94 -22 -23 -9 -23 -10 14 -32 86 -50
221 -64 355 -36 107 22 111 27 48 57 -55 26 -160 49 -219 47 -19 0 -65 -7
-104 -14z"/>
<path d="M1568 1182 c-26 -20 -67 -52 -92 -70 -48 -36 -67 -69 -45 -82 33 -21
163 91 187 160 14 38 8 37 -50 -8z"/>
<path d="M3650 1209 c0 -45 90 -148 153 -174 34 -14 38 -14 43 0 4 8 -1 26 -9
38 -18 27 -187 150 -187 136z"/>
<path d="M1740 1130 l0 -30 905 0 905 0 0 30 0 30 -905 0 -905 0 0 -30z"/>
<path d="M2937 874 c-91 -28 -167 -134 -167 -234 0 -105 76 -207 176 -236 134
-39 260 11 320 126 27 52 26 171 -3 226 -59 110 -193 159 -326 118z m147 -124
c34 -13 66 -66 66 -110 0 -44 -32 -97 -66 -110 -105 -40 -197 44 -165 150 20
66 94 97 165 70z"/>
<path d="M4130 881 c-79 -26 -151 -93 -169 -158 -27 -95 -7 -190 52 -251 56
-58 102 -77 192 -77 71 0 86 3 135 31 38 22 64 46 85 79 27 44 30 56 30 135 0
79 -3 91 -30 135 -42 67 -114 107 -203 111 -37 2 -78 0 -92 -5z m140 -136 c18
-9 34 -30 45 -60 17 -42 17 -48 1 -88 -19 -51 -58 -77 -116 -77 -34 0 -48 6
-76 34 -30 30 -34 40 -34 86 0 46 4 56 34 86 28 28 42 34 75 34 23 0 55 -7 71
-15z"/>
<path d="M840 640 l0 -240 65 0 65 0 0 240 0 240 -65 0 -65 0 0 -240z"/>
<path d="M1031 640 l-2 -240 124 0 c158 0 216 16 272 74 88 91 88 241 0 332
-55 58 -114 74 -271 74 l-122 0 -1 -240z m242 109 c47 -13 77 -57 77 -114 0
-71 -53 -115 -140 -115 l-40 0 0 120 0 120 33 0 c17 0 49 -5 70 -11z"/>
<path d="M1530 640 l0 -240 234 0 235 0 12 35 13 35 82 0 82 0 12 -35 12 -35
73 0 74 0 -22 58 c-12 31 -53 140 -92 240 l-70 183 -69 -3 -69 -3 -86 -224
c-78 -205 -86 -221 -89 -183 l-3 42 -100 0 -99 0 0 40 0 40 85 0 85 0 0 55 0
55 -85 0 -85 0 0 35 0 35 95 0 95 0 0 55 0 55 -160 0 -160 0 0 -240z m608 -7
l21 -63 -50 0 c-27 0 -49 4 -49 8 0 23 43 132 50 125 4 -4 17 -36 28 -70z"/>
<path d="M2340 815 l0 -65 75 0 75 0 0 -175 0 -175 65 0 65 0 0 175 0 175 75
0 75 0 0 65 0 65 -215 0 -215 0 0 -65z"/>
<path d="M3328 873 c-1 -4 -2 -113 -3 -240 l-2 -233 69 0 68 0 0 70 c0 68 1
70 25 70 21 0 31 -12 60 -70 l35 -70 75 0 c41 0 75 3 75 7 0 3 -18 39 -40 79
l-40 73 29 29 c29 29 51 86 51 132 -1 45 -36 106 -76 131 -36 22 -52 24 -181
27 -79 2 -144 0 -145 -5z m240 -119 c26 -18 29 -60 5 -86 -11 -13 -30 -18 -65
-18 l-48 0 0 60 0 60 43 0 c23 0 53 -7 65 -16z"/>
<path d="M3771 640 l0 -240 69 0 70 0 0 240 0 240 -69 0 -70 0 0 -240z"/>
</g>
</svg>
